<svg width="332" height="270" viewBox="0 0 332 270" fill="none" xmlns="http://www.w3.org/2000/svg">
<path d="M329.403 268.486C325.658 268.758 321.89 268.958 318.076 269.079C316.997 269.108 8.75512 269.2 8.75512 269.2C8.54906 269.183 8.31683 269.183 8.11077 269.17C6.45574 269.079 4.8236 268.987 3.17184 268.866C-1.05732 268.578 -1.05732 264.828 3.17184 264.54C4.80398 264.419 6.45901 264.327 8.11077 264.252C8.33972 264.235 8.57195 264.235 8.80091 264.222C8.80091 264.222 316.997 264.298 318.053 264.327C321.867 264.448 325.635 264.644 329.403 264.919C332.87 265.175 332.847 268.228 329.403 268.486Z" fill="#FAFAFA"/>
<path d="M207.493 7.95403C197.923 3.14033 187.145 1.23252 176.466 0.375151C164.884 -0.557484 152.514 -0.132072 142.718 6.12476C130.138 14.1618 124.673 29.8693 113.454 39.7192C95.2191 55.7344 67.2863 52.5078 44.9042 61.8767C34.2086 66.3533 24.7854 73.8275 17.9887 83.2258C13.6319 89.2536 10.2532 96.6296 11.5386 103.956C13.2754 113.859 22.6267 120.283 28.3866 128.522C35.2913 138.402 36.9234 151.76 32.5994 163.014C30.3098 168.969 26.5124 174.261 24.2817 180.239C16.7785 200.352 29.8028 223.982 49.0058 233.56C68.212 243.138 91.3661 241.155 111.714 234.345C118.213 232.169 124.607 229.505 130.282 225.657C136.058 221.74 140.978 216.674 146.702 212.679C167.282 198.306 194.442 199.74 219.49 198.156C247.155 196.405 275.686 189.7 296.855 171.797C318.024 153.893 329.625 122.658 318.423 97.2906C316.215 92.2871 313.189 87.5683 312.012 82.2278C311.001 77.6464 311.416 72.8883 311.168 68.2022C310.641 58.3392 306.932 48.4566 299.89 41.5354C287.883 29.7384 270.378 35.2884 255.525 34.5521C236.633 33.6097 223.67 16.086 207.493 7.95403Z" fill="white"/>
<path d="M218.947 73.8831C218.947 73.8831 212.399 81.4686 188.143 91.2563C191.368 93.7139 207.094 108.564 208.209 109.909C210.734 112.962 208.893 115.452 208.075 118.751C207.454 121.261 207.14 123.499 205.737 125.79C205.602 126.009 205.452 126.238 205.223 126.359C204.611 126.687 203.911 126.085 203.568 125.479C202.391 123.404 202.597 120.862 202.361 118.486C201.785 112.697 196.215 112.056 191.953 109.457C179.465 101.843 168.469 95.5955 172.08 87.552C176.263 78.2289 199.97 59.3471 206.58 58.5519C213.191 57.7567 224.998 70.0937 218.947 73.8831Z" fill="#8C6239"/>
<path d="M215.873 37.4875C215.274 36.9213 215.147 36.0574 215.042 34.7059C214.843 32.1796 214.695 29.4439 216.085 27.3267C217.492 25.1865 220.432 24.2048 222.84 25.072C223.87 22.7289 226.101 20.9749 228.606 20.4481C231.112 19.9245 233.823 20.6117 235.828 22.2053C236.855 23.0202 237.712 24.0641 238.857 24.7022C240.002 25.3436 241.611 25.4516 242.491 24.4764C242.818 25.4548 243.145 26.5347 242.762 27.4935C242.324 28.5865 241.127 29.1396 240.335 30.01C239.132 31.3288 239.315 33.1286 239.168 34.8139C239.083 35.7727 238.785 36.4207 238.409 37.2748C237.984 38.2368 237.807 39.2906 237.244 40.2068C237.071 40.4883 236.521 41.3293 236.335 40.5799C235.243 40.4784 234.15 40.3704 233.058 40.2592C229.355 39.8829 225.653 39.4804 221.966 38.9633C220.439 38.7506 218.902 38.5379 217.397 38.1943C216.687 38.0241 216.206 37.8016 215.873 37.4875Z" fill="#333333"/>
<path d="M236.868 36.8493C236.868 36.8493 238.782 34.6895 240.561 36.9639C242.34 39.2349 239.073 43.381 236.665 43.4956C236.665 43.4956 236.564 37.7951 236.868 36.8493Z" fill="#42210B"/>
<path d="M201.691 61.5069C202.724 64.1739 206.302 73.8897 207.751 82.3946C207.869 83.0818 207.974 83.7265 208.052 84.3548C208.628 88.7202 210.116 109.736 210.348 113.044C210.368 113.322 210.378 113.476 210.378 113.476C226.941 118.584 244.401 114.52 244.401 114.52C244.401 114.52 244.437 114.199 244.528 113.59C245.045 109.493 247.194 92.5391 248.633 77.8754C249.363 70.398 249.909 63.4998 249.958 59.2064C249.978 57.6324 246.327 57.688 243.815 57.2626C240.309 56.6539 236.469 56.4085 234.732 56.343C234.579 56.3234 234.441 56.3201 234.314 56.3169C233.98 56.307 233.794 56.3038 233.794 56.3038L233.65 53.8429C233.65 53.8167 233.545 52.21 233.545 52.21L233.267 47.7923C232.986 47.8381 232.708 47.8904 232.426 47.9101C231.867 47.9919 231.337 48.0213 230.807 48.0279C230.098 48.0377 229.443 48.0148 228.819 47.9395C228.498 47.9002 228.194 47.8642 227.903 47.8152C227.474 47.7464 227.059 47.6646 226.657 47.5665C225.98 47.4061 225.335 47.1901 224.724 46.9774C224.531 46.912 224.351 46.8531 224.174 46.7647C224.119 46.7484 224.063 46.732 224.024 46.7058C223.886 46.6469 223.736 46.5847 223.598 46.5258C222.706 46.1364 221.95 45.7077 221.335 45.3118C220.939 45.0631 220.596 44.8307 220.324 44.6246C220.23 44.5526 220.187 44.5231 220.148 44.4937C219.994 44.3791 219.876 44.2908 219.781 44.2024C219.644 44.101 219.559 44.0192 219.533 43.9897C219.579 44.2973 219.605 44.4348 219.618 44.5722C219.749 45.9761 219.896 47.7726 219.925 49.5593C219.971 50.7865 219.974 52.0006 219.984 53.0608C219.984 54.8868 219.942 56.2089 219.942 56.2089C219.539 56.1958 219.134 56.1991 218.745 56.2285C218.702 56.2121 218.646 56.2121 218.604 56.2252C216.779 56.2514 215.032 56.4216 213.42 56.667C207.722 57.58 203.591 59.5304 202.103 60.391C201.704 60.6168 201.534 61.0847 201.691 61.5069Z" fill="#8C6239"/>
<path d="M219.526 43.993C221.374 53.8135 231.203 53.4339 233.545 52.2133L233.267 47.7955C225.132 49.1961 219.526 43.993 219.526 43.993Z" fill="#603813"/>
<path d="M236.642 30.4289C237.83 31.7411 237.843 34.6078 237.849 37.7787C237.866 47.3734 234.906 50.2793 229.996 50.6556C225.087 51.0319 220.027 48.9932 219.245 40.0727C218.856 35.6124 218.417 31.4892 220.092 29.6206C222.588 26.8325 232.999 26.3973 236.642 30.4289Z" fill="#8C6239"/>
<path d="M219.965 38.8095C219.965 38.8095 218.588 34.7943 216.161 36.8264C213.734 38.8586 216.815 44.9551 220.442 44.6213C220.442 44.6213 221.073 40.2035 219.965 38.8095Z" fill="#8C6239"/>
<path d="M217.207 38.6655C217.727 38.7735 218.247 39.284 218.614 39.6473C218.996 40.0301 219.445 40.5046 219.628 41.0217C219.683 41.1853 219.458 41.2769 219.353 41.1722C219.055 40.8777 218.82 40.5308 218.545 40.2134C218.336 40.4261 218.12 40.6453 217.835 40.7402C217.616 40.8122 217.462 40.5374 217.564 40.3639C217.695 40.1381 217.927 39.9778 218.153 39.8338C217.786 39.5327 217.341 39.2906 217.037 38.9437C216.923 38.8095 217.047 38.6328 217.207 38.6655Z" fill="#603813"/>
<path d="M233.653 37.422C233.653 37.422 234.471 37.7558 234.392 36.2865C234.32 34.9644 233.725 35.1248 233.725 35.1248C233.725 35.1248 233.149 35.1019 233.202 36.2603C233.254 37.4188 233.653 37.422 233.653 37.422Z" fill="#333333"/>
<path d="M225.257 37.1635C225.257 37.1635 226.074 37.4973 225.996 36.028C225.924 34.7059 225.329 34.8662 225.329 34.8662C225.329 34.8662 224.753 34.8433 224.805 36.0018C224.858 37.1569 225.257 37.1635 225.257 37.1635Z" fill="#333333"/>
<path d="M229.771 41.2147C230.192 41.1656 231.148 41.4438 231.357 40.9987C231.533 40.6257 230.925 38.3775 230.843 37.9914C230.542 36.6039 230.209 35.6614 229.999 33.9991C229.99 33.9271 230.117 33.8878 230.147 33.9631C231.049 36.1883 231.331 38.9142 231.847 41.2605C231.877 41.3881 231.776 41.5223 231.641 41.5158C231.026 41.4863 230.425 41.5976 229.81 41.5845C229.604 41.5812 229.555 41.2409 229.771 41.2147Z" fill="#603813"/>
<path d="M232.881 32.9388C233.483 32.6541 234.595 32.6083 235.007 33.2399C235.082 33.3544 234.971 33.5213 234.84 33.5115C234.546 33.4886 234.291 33.3348 233.996 33.302C233.676 33.2661 233.372 33.3282 233.064 33.4166C232.786 33.4951 232.613 33.0632 232.881 32.9388Z" fill="#333333"/>
<path d="M224.132 33.3969C224.495 32.5658 225.967 32.5298 226.578 33.0697C226.719 33.1941 226.621 33.4166 226.464 33.4591C226.094 33.5606 225.711 33.4133 225.329 33.4362C224.995 33.4559 224.724 33.5966 224.413 33.6947C224.249 33.7438 224.06 33.5573 224.132 33.3969Z" fill="#333333"/>
<path d="M231.759 44.2515C231.759 44.2515 228.76 44.6082 226.542 43.1847C226.542 43.1847 227.262 45.1678 229.09 45.7274C230.918 46.287 231.759 44.2515 231.759 44.2515Z" fill="white"/>
<path d="M315.826 220.065V220.192C315.826 221.648 315.75 223.082 315.613 224.495C315.538 225.251 315.443 225.984 315.325 226.717C314.985 228.969 314.465 231.161 313.785 233.275C313.539 234.074 313.265 234.849 312.967 235.612C306.775 251.669 291.2 263.054 272.971 263.054C251.472 263.054 233.666 247.209 230.598 226.537C230.523 226.027 230.451 225.516 230.395 224.996C230.215 223.422 230.13 221.819 230.13 220.192C230.13 220.002 230.13 219.8 230.14 219.606C230.14 219.106 230.15 218.618 230.183 218.118C230.287 215.81 230.575 213.546 231.043 211.347C231.18 210.699 231.331 210.061 231.488 209.423C232.423 205.8 233.826 202.354 235.632 199.177C241.984 187.881 253.317 179.758 266.649 177.805C268.709 177.487 270.822 177.327 272.968 177.327C295.71 177.327 314.311 195.054 315.734 217.437C315.793 218.311 315.826 219.181 315.826 220.065Z" fill="#4F8D6E"/>
<path d="M313.785 233.275C313.539 234.074 313.265 234.849 312.967 235.612C308.95 234.231 304.924 232.85 300.816 231.763C292.138 229.466 283.297 227.778 274.388 226.714C266.047 225.716 257.635 225.258 249.232 225.343C242.998 225.418 236.803 226.119 230.598 226.534C230.523 226.024 230.451 225.513 230.395 224.993C245.245 222.303 261.785 223.537 276.308 225.333C288.416 226.822 301.761 229.015 313.785 233.275Z" fill="#F2F2F2"/>
<path d="M315.613 224.495C315.538 225.251 315.443 225.984 315.325 226.717C303.151 222.741 290.85 219.616 277.868 218.193C261.87 216.439 245.915 216.907 230.14 219.607C230.14 219.106 230.15 218.618 230.183 218.118C236.364 216.373 243.174 216.118 249.366 215.781C258.861 215.251 268.402 215.516 277.868 216.514C290.49 217.852 303.406 220.353 315.613 224.495Z" fill="#F2F2F2"/>
<path d="M315.826 220.065C310.674 218.386 305.532 216.622 300.286 215.241C291.893 213.029 283.363 211.298 274.761 210.192C266.433 209.118 258.021 208.673 249.628 209.01C243.308 209.266 237.189 210.274 231.049 211.347C231.187 210.699 231.337 210.061 231.494 209.423C245.497 206.15 261.102 206.723 274.846 208.369C288.315 209.973 302.602 212.813 315.744 217.434C315.793 218.311 315.826 219.181 315.826 220.065Z" fill="#F2F2F2"/>
<path d="M228.946 122.94C228.806 125.908 228.416 129.37 227.86 133.133C226.869 139.848 225.325 147.493 223.654 154.905C219.798 171.947 215.284 187.691 215.284 187.691C215.088 197.904 213.305 210.041 211.258 220.84C210.604 224.266 209.933 227.572 209.279 230.621C206.911 241.476 204.765 249.294 204.765 249.294L194.374 247.33C193.886 241.424 193.69 235.808 193.707 230.527C193.707 227.238 193.792 224.103 193.929 221.092C194.877 200.568 198.524 186.843 198.554 184.265C198.639 172.255 199.332 161.76 200.31 152.817C202.986 128.166 207.748 115.335 207.748 115.335C214.46 99.8824 224.54 100.946 227.873 112.331C228.727 115.24 229.142 118.8 228.946 122.94Z" fill="#8C6239"/>
<path d="M261.995 233.897C261.939 238.174 261.73 242.661 261.353 247.33L250.965 249.294C250.965 249.294 249.127 242.579 246.981 232.935C246.187 229.394 245.366 225.467 244.571 221.328C242.481 210.418 240.643 198.058 240.45 187.691C240.45 187.691 235.897 171.833 232.037 154.725C230.379 147.381 228.845 139.779 227.86 133.133C227.301 129.357 226.928 125.895 226.787 122.94C226.591 118.8 227.016 115.23 227.873 112.327C231.239 100.936 241.287 99.8922 247.999 115.331C247.999 115.331 252.735 128.094 255.394 152.633C256.382 161.606 257.079 172.17 257.177 184.265C257.206 186.827 260.784 200.332 261.772 220.575C261.981 224.741 262.067 229.185 261.995 233.897Z" fill="#8C6239"/>
<path d="M239.897 57.0859C239.897 57.0859 248.97 52.835 275.107 53.8069C275.107 53.8069 266.816 38.5968 266.616 34.6438C266.616 34.6438 262.75 38.3187 259.813 35.115C257.635 32.7392 257.877 29.8333 262.024 27.4641C266.171 25.0949 270.76 23.5798 279.055 35.6287C287.347 47.6777 294.84 57.8713 288.259 63.7419C280.635 70.5453 251.292 78.1013 244.934 76.1247C238.579 74.1547 232.829 58.0741 239.897 57.0859Z" fill="#8C6239"/>
<path d="M248.084 97.7193C246.664 91.8519 240.257 92.4802 240.257 92.4802C240.479 90.556 240.522 88.4682 240.411 86.279C240.397 86.027 240.384 85.7914 240.368 85.5394C240.27 84.1028 240.116 82.627 239.923 81.1348C239.897 80.8697 239.858 80.5916 239.825 80.3134C238.778 71.6939 235.969 62.9533 234.631 58.7843C234.114 57.2102 233.797 56.3038 233.797 56.3038L233.404 49.7852C233.404 49.7852 234.798 49.2976 237.957 51.6242C238.85 52.2656 239.881 53.1426 241.065 54.3142C244.95 58.1723 249.785 71.6743 252.918 82.0281C253.016 82.375 253.127 82.7252 253.226 83.072C253.837 85.1206 254.367 87.0284 254.812 88.6875C254.91 89.0638 255.008 89.427 255.09 89.7739C255.59 91.6686 255.94 93.1445 256.078 93.9822C256.967 99.1395 249.503 103.587 248.084 97.7193Z" fill="#4FAC6E"/>
<path d="M212.792 101.816C211.637 92.0352 205.939 93.8055 205.939 93.8055C205.786 91.4919 205.688 89.3191 205.661 87.2444C205.661 86.9924 205.648 86.7437 205.648 86.4917C205.648 85.3758 205.661 84.3025 205.674 83.2586C205.674 82.9935 205.687 82.7284 205.704 82.4634C206.623 53.663 219.922 49.5659 219.922 49.5659L219.938 56.2154C219.938 56.2154 220.465 77.4075 221.345 90.7851C221.358 91.1614 221.387 91.5247 221.414 91.8846C221.58 94.3782 221.793 96.5347 221.957 98.184C221.993 98.5309 222.025 98.8516 222.068 99.1461C222.15 99.6893 222.221 100.151 222.303 100.511C223.723 107.026 213.946 111.598 212.792 101.816Z" fill="#4FAC6E"/>
<path d="M237.957 51.6243C235.825 53.6041 234.978 56.6278 234.628 58.7875C234.111 57.2135 233.794 56.3071 233.794 56.3071L233.401 49.7884C233.404 49.7852 234.794 49.2976 237.957 51.6243Z" fill="#4F7A6E"/>
<path d="M222.064 99.1395C220.615 98.9039 219.209 98.22 218.025 97.091C215.768 94.9018 215.366 91.5737 212.87 89.5514C210.754 87.8366 208.232 87.4047 205.655 87.2378C205.655 86.9858 205.642 86.7371 205.642 86.4851C208.579 86.6095 211.562 87.3621 213.734 89.2994C215.503 90.8734 216.089 93.0463 217.341 94.9705C218.552 96.7965 220.184 97.8273 221.95 98.1742C221.983 98.5276 222.025 98.8483 222.064 99.1395Z" fill="#E6E6E6"/>
<path d="M221.41 91.8813C220.602 91.5476 219.794 91.06 218.974 90.3891C216.55 88.4388 214.46 86.2921 211.608 84.9406C209.671 84.021 207.696 83.5465 205.674 83.2553C205.674 82.9902 205.687 82.7252 205.704 82.4601C208.461 82.6826 211.205 83.5891 213.586 84.898C215.438 85.9027 216.955 87.2247 218.532 88.6057C219.395 89.3452 220.301 90.2091 221.345 90.7785C221.355 91.1549 221.384 91.5181 221.41 91.8813Z" fill="#E6E6E6"/>
<path d="M255.087 89.7772C253.86 90.183 252.552 90.3629 251.256 90.2517C248.457 90.0161 244.041 86.8811 240.407 86.279C240.394 86.027 240.381 85.7914 240.365 85.5394C241.617 85.6932 242.886 86.0695 243.832 86.4459C246.004 87.2836 248.038 88.5762 250.35 89.0376C251.979 89.3583 253.458 89.1783 254.809 88.6907C254.907 89.0671 255.005 89.427 255.087 89.7772Z" fill="#E6E6E6"/>
<path d="M253.222 83.0753C252.192 83.1735 251.162 83.1178 250.144 82.9346C247.331 82.4339 245.032 81.2068 242.082 81.1086C241.359 81.0791 240.646 81.0955 239.923 81.138C239.897 80.873 239.854 80.5948 239.825 80.3167C241.65 80.1072 243.475 80.1072 245.313 80.4705C247.557 80.9155 249.533 81.9889 251.875 82.0576C252.238 82.0707 252.584 82.0576 252.918 82.0314C253.013 82.3783 253.124 82.7252 253.222 83.0753Z" fill="#E6E6E6"/>
<path d="M259.643 176.529C254.154 180.095 246.815 181.391 241.287 181.836C236.718 182.2 233.404 181.977 233.404 181.977L227.89 137.263L221.747 180.639C210.954 184.552 196.009 178.633 196.009 178.633C198.279 129.363 210.868 109.451 210.868 109.451C225.339 114.16 245.297 109.592 245.297 109.592C255.479 123.316 259.643 176.529 259.643 176.529Z" fill="#4FAC6E"/>
<path d="M227.501 114.471C226.712 115.053 226.166 115.623 225.793 116.542C225.074 118.309 226.048 120.26 225.244 122.001C224.662 123.26 223.53 124.101 223.092 125.482C222.706 126.7 222.742 127.901 223.078 129.121C223.18 129.491 223.814 129.435 223.772 129.026C223.605 127.302 223.71 125.8 224.681 124.278C225.244 123.398 225.993 122.796 226.326 121.778C226.552 121.094 226.487 120.613 226.477 119.916C226.447 117.959 226.49 116.545 227.831 114.899C228.008 114.68 227.769 114.271 227.501 114.471Z" fill="#004A25"/>
<path d="M231.193 120.485C230.376 118.443 230.395 116.977 230.883 114.854C230.928 114.654 230.667 114.546 230.555 114.716C229.833 115.806 229.542 116.876 229.646 118.208C229.774 119.837 230.961 121.3 230.34 122.9C229.371 125.391 228.171 127.439 230.065 129.923C230.261 130.182 230.657 129.966 230.506 129.664C229.43 127.488 229.751 125.633 230.85 123.591C231.095 123.136 231.494 122.76 231.586 122.23C231.743 121.336 231.563 121.405 231.193 120.485Z" fill="#004A25"/>
<path d="M241.287 181.84C236.718 182.203 233.404 181.98 233.404 181.98L227.89 137.266C227.887 137.263 237.356 158.792 241.287 181.84Z" fill="#4F7D6E"/>
<path d="M209.282 230.621C206.914 241.476 204.768 249.294 204.768 249.294L194.377 247.33C193.89 241.424 193.693 235.808 193.71 230.527C197.903 231.04 204.252 231.528 209.282 230.621Z" fill="#CCCCCC"/>
<path d="M261.995 233.897C261.939 238.174 261.73 242.661 261.353 247.33L250.965 249.294C250.965 249.294 249.127 242.579 246.982 232.935C251.829 234.09 257.886 234.09 261.995 233.897Z" fill="#CCCCCC"/>
<path d="M206.119 259.785C206.116 259.896 206.106 260.008 206.093 260.106C205.746 264.913 201.831 264.173 196.022 264.258C191.384 264.327 188.918 261.68 189.199 258.879C189.268 258.1 189.562 257.291 190.076 256.539C192.457 253.096 193.222 248.512 193.222 248.512C198.946 241.643 204.768 249.29 204.768 249.29C204.768 249.29 206.217 254.628 206.119 259.785Z" fill="#4FB26E"/>
<path d="M259.725 264.258C253.778 264.173 249.726 264.942 249.628 259.785C249.624 259.631 249.615 259.494 249.628 259.34C249.503 254.323 250.965 249.294 250.965 249.294C250.965 249.294 256.801 241.643 262.511 248.515C262.511 248.515 263.277 253.1 265.658 256.542C265.949 256.961 266.175 257.406 266.325 257.838C267.401 260.983 264.935 264.343 259.725 264.258Z" fill="#4FB26E"/>
<path d="M201.916 252.229C200.264 251.198 196.663 250.75 194.979 251.905C194.799 252.029 194.874 252.281 195.087 252.301C196.124 252.399 197.157 252.079 198.214 252.151C199.424 252.232 200.438 252.7 201.592 252.995C202.057 253.113 202.322 252.481 201.916 252.229Z" fill="#4F886E"/>
<path d="M201.184 254.53C199.103 253.96 196.372 253.515 194.351 254.448C194.004 254.608 194.112 255.155 194.456 255.243C195.404 255.485 196.366 255.459 197.334 255.515C198.501 255.58 199.63 255.803 200.771 256.032C201.743 256.228 202.158 254.798 201.184 254.53Z" fill="#4F886E"/>
<path d="M259.836 251.938C257.795 251.274 255.335 251.454 253.53 252.658C252.954 253.041 253.307 254.143 254.033 253.852C255.872 253.109 257.5 252.834 259.44 253.378C260.369 253.633 260.745 252.232 259.836 251.938Z" fill="#4F886E"/>
<path d="M260.935 254.562C259.554 253.999 257.828 254.058 256.379 254.317C255.437 254.484 253.932 254.732 253.706 255.852C253.66 256.071 253.768 256.303 253.997 256.365C254.926 256.313 255.813 255.884 256.676 255.77C258.076 255.587 259.365 255.839 260.752 255.93C261.599 255.989 261.602 254.837 260.935 254.562Z" fill="#4F886E"/>
</svg>
